<svg width="1375" height="356" viewBox="0 0 1375 356" fill="#ed2938" xmlns="http://www.w3.org/2000/svg">
<path d="M121.407 8.73611C123.764 4.48611 127.143 2.36111 131.544 2.36111H174.685C176.413 2.36111 177.906 2.99074 179.164 4.25C180.421 5.50926 181.05 7.00463 181.05 8.73611V161.264C181.05 162.995 180.421 164.491 179.164 165.75C177.906 167.009 176.413 167.639 174.685 167.639H132.015C130.287 167.639 128.794 167.009 127.536 165.75C126.279 164.491 125.65 162.995 125.65 161.264V88.0695L108.441 122.069C107.97 123.171 106.87 124.431 105.141 125.847C103.412 127.264 101.212 127.972 98.54 127.972H82.5096C79.8378 127.972 77.6376 127.264 75.9088 125.847C74.18 124.431 73.0799 123.171 72.6084 122.069L55.3993 88.0695V161.264C55.3993 162.995 54.7707 164.491 53.5134 165.75C52.2561 167.009 50.763 167.639 49.0343 167.639H6.36503C4.63625 167.639 3.14322 167.009 1.88593 165.75C0.628644 164.491 0 162.995 0 161.264V8.73611C0 7.00463 0.628644 5.50926 1.88593 4.25C3.14322 2.99074 4.63625 2.36111 6.36503 2.36111H49.5057C53.9063 2.36111 57.2852 4.48611 59.6426 8.73611L90.5248 65.4028L121.407 8.73611Z" fill="#D7D7D"/>
<path d="M256.866 159.611C254.823 164.963 251.287 167.639 246.258 167.639H201.703C200.288 167.639 199.031 167.167 197.931 166.222C196.988 165.12 196.516 163.861 196.516 162.444L196.752 161.028L248.144 10.1528C248.773 8.10649 249.951 6.2963 251.68 4.72222C253.409 3.14815 255.766 2.36111 258.752 2.36111H324.288C327.275 2.36111 329.632 3.14815 331.361 4.72222C333.089 6.2963 334.268 8.10649 334.897 10.1528L386.288 161.028L386.524 162.444C386.524 163.861 385.974 165.12 384.874 166.222C383.931 167.167 382.752 167.639 381.338 167.639H336.783C331.754 167.639 328.217 164.963 326.174 159.611L320.281 143.083H262.76L256.866 159.611ZM291.52 47.9306L274.783 97.0417H308.258L291.52 47.9306Z" fill="#D7D7D"/>
<path d="M491.101 170C464.698 170 443.717 164.255 428.158 152.764C412.757 141.273 405.056 123.329 405.056 98.9306V8.73611C405.056 7.00463 405.684 5.50926 406.942 4.25C408.199 2.99074 409.692 2.36111 411.421 2.36111H460.691C462.42 2.36111 463.913 2.99074 465.17 4.25C466.427 5.50926 467.056 7.00463 467.056 8.73611V102.708C467.056 109.162 469.177 114.12 473.421 117.583C477.821 121.046 483.715 122.778 491.101 122.778C498.488 122.778 504.303 121.046 508.546 117.583C512.947 114.12 515.147 109.162 515.147 102.708V8.73611C515.147 7.00463 515.776 5.50926 517.033 4.25C518.29 2.99074 519.783 2.36111 521.512 2.36111H570.782C572.511 2.36111 574.004 2.99074 575.261 4.25C576.519 5.50926 577.147 7.00463 577.147 8.73611V98.9306C577.147 123.329 569.368 141.273 553.809 152.764C538.407 164.255 517.505 170 491.101 170Z" fill="#D7D7D"/>
<path d="M784.979 160.319C785.294 160.949 785.451 161.657 785.451 162.444C785.451 163.861 784.901 165.12 783.8 166.222C782.857 167.167 781.679 167.639 780.264 167.639H726.751C724.551 167.639 722.508 167.088 720.622 165.986C718.893 164.884 717.636 163.468 716.85 161.736L696.105 114.986H676.302V161.264C676.302 162.995 675.674 164.491 674.416 165.75C673.159 167.009 671.666 167.639 669.937 167.639H619.017C617.288 167.639 615.795 167.009 614.538 165.75C613.281 164.491 612.652 162.995 612.652 161.264V8.73611C612.652 7.00463 613.281 5.50926 614.538 4.25C615.795 2.99074 617.288 2.36111 619.017 2.36111H710.721C724.865 2.36111 737.202 4.64352 747.732 9.20834C758.419 13.7732 766.591 20.3843 772.249 29.0417C777.907 37.6991 780.736 47.8519 780.736 59.5C780.736 80.9074 772.485 96.412 755.983 106.014L784.979 160.319ZM705.77 71.3056C709.228 71.3056 711.899 70.2037 713.785 68C715.671 65.6389 716.614 62.7269 716.614 59.2639C716.614 55.8009 715.671 52.8102 713.785 50.2917C712.056 47.6157 709.385 46.2778 705.77 46.2778H676.302V71.3056H705.77Z" fill="#D7D7D"/>
<path d="M923.739 119.236H966.408C968.137 119.236 969.63 119.866 970.887 121.125C972.145 122.384 972.773 123.88 972.773 125.611V161.264C972.773 162.995 972.145 164.491 970.887 165.75C969.63 167.009 968.137 167.639 966.408 167.639H816.948C815.219 167.639 813.726 167.009 812.469 165.75C811.212 164.491 810.583 162.995 810.583 161.264V125.611C810.583 123.88 811.212 122.384 812.469 121.125C813.726 119.866 815.219 119.236 816.948 119.236H860.089V50.7639H816.948C815.219 50.7639 813.726 50.1343 812.469 48.875C811.212 47.6157 810.583 46.1204 810.583 44.3889V8.73611C810.583 7.00463 811.212 5.50926 812.469 4.25C813.726 2.99074 815.219 2.36111 816.948 2.36111H966.408C968.137 2.36111 969.63 2.99074 970.887 4.25C972.145 5.50926 972.773 7.00463 972.773 8.73611V44.3889C972.773 46.1204 972.145 47.6157 970.887 48.875C969.63 50.1343 968.137 50.7639 966.408 50.7639H923.739V119.236Z" fill="#D7D7D"/>
<path d="M1070.28 103.889C1070.28 110.343 1072.4 115.301 1076.64 118.764C1081.04 122.227 1086.94 123.958 1094.32 123.958C1100.92 123.958 1105.8 122.856 1108.94 120.653C1112.08 118.449 1114.75 115.144 1116.95 110.736C1119 106.644 1121.75 104.597 1125.21 104.597H1176.13C1177.54 104.597 1178.72 105.148 1179.66 106.25C1180.76 107.194 1181.31 108.375 1181.31 109.792C1181.31 119.394 1178.09 128.838 1171.65 138.125C1165.2 147.255 1155.38 154.889 1142.18 161.028C1129.13 167.009 1113.18 170 1094.32 170C1077.51 170 1062.5 167.481 1049.3 162.444C1036.25 157.25 1025.88 149.38 1018.18 138.833C1010.48 128.13 1006.63 114.829 1006.63 98.9306V71.0695C1006.63 55.1713 1010.48 41.9491 1018.18 31.4028C1025.88 20.6991 1036.25 12.8287 1049.3 7.79166C1062.5 2.59722 1077.51 0 1094.32 0C1113.18 0 1129.13 3.06945 1142.18 9.20834C1155.38 15.1898 1165.2 22.8241 1171.65 32.1111C1178.09 41.2407 1181.31 50.6065 1181.31 60.2083C1181.31 61.625 1180.76 62.8843 1179.66 63.9861C1178.72 64.9306 1177.54 65.4028 1176.13 65.4028H1125.21C1121.75 65.4028 1119 63.3565 1116.95 59.2639C1114.75 54.8565 1112.08 51.5509 1108.94 49.3472C1105.8 47.1435 1100.92 46.0417 1094.32 46.0417C1086.94 46.0417 1081.04 47.7731 1076.64 51.2361C1072.4 54.6991 1070.28 59.6574 1070.28 66.1111V103.889Z" fill="#D7D7D"/>
<path d="M1368.64 121.597C1370.36 121.597 1371.86 122.227 1373.11 123.486C1374.37 124.745 1375 126.241 1375 127.972V161.264C1375 162.995 1374.37 164.491 1373.11 165.75C1371.86 167.009 1370.36 167.639 1368.64 167.639H1219.65C1217.92 167.639 1216.42 167.009 1215.17 165.75C1213.91 164.491 1213.28 162.995 1213.28 161.264V8.73611C1213.28 7.00463 1213.91 5.50926 1215.17 4.25C1216.42 2.99074 1217.92 2.36111 1219.65 2.36111H1366.28C1368.01 2.36111 1369.5 2.99074 1370.76 4.25C1372.01 5.50926 1372.64 7.00463 1372.64 8.73611V42.0278C1372.64 43.7593 1372.01 45.2546 1370.76 46.5139C1369.5 47.7732 1368.01 48.4028 1366.28 48.4028H1274.57V63.2778H1353.31C1355.04 63.2778 1356.53 63.9074 1357.79 65.1667C1359.05 66.4259 1359.68 67.9213 1359.68 69.6528V100.347C1359.68 102.079 1359.05 103.574 1357.79 104.833C1356.53 106.093 1355.04 106.722 1353.31 106.722H1274.57V121.597H1368.64Z" fill="#D7D7D"/>
<path d="M119.517 188.361C120.718 188.361 121.756 188.991 122.629 190.25C123.503 191.509 123.94 193.005 123.94 194.736V347.264C123.94 348.995 123.503 350.491 122.629 351.75C121.756 353.009 120.718 353.639 119.517 353.639H85.7732C84.5719 353.639 83.5345 353.009 82.6609 351.75C81.7872 350.491 81.3504 348.995 81.3504 347.264V296.972H48.5894V347.264C48.5894 348.995 48.1526 350.491 47.2789 351.75C46.4053 353.009 45.3679 353.639 44.1666 353.639H10.4227C9.2215 353.639 8.18407 353.088 7.31044 351.986C6.43681 350.727 6 349.153 6 347.264V194.736C6 193.005 6.43681 191.509 7.31044 190.25C8.18407 188.991 9.2215 188.361 10.4227 188.361H44.1666C45.3679 188.361 46.4053 188.991 47.2789 190.25C48.1526 191.509 48.5894 193.005 48.5894 194.736V243.139H81.3504V194.736C81.3504 193.005 81.7872 191.509 82.6609 190.25C83.5345 188.991 84.5719 188.361 85.7732 188.361H119.517Z" fill="#D7D7D"/>
<path d="M180.552 345.611C179.133 350.963 176.676 353.639 173.181 353.639H142.222C141.239 353.639 140.366 353.167 139.601 352.222C138.946 351.12 138.618 349.861 138.618 348.444L138.782 347.028L174.492 196.153C174.928 194.106 175.747 192.296 176.949 190.722C178.15 189.148 179.788 188.361 181.863 188.361H227.401C229.476 188.361 231.114 189.148 232.315 190.722C233.516 192.296 234.335 194.106 234.772 196.153L270.482 347.028L270.645 348.444C270.645 349.861 270.263 351.12 269.499 352.222C268.843 353.167 268.024 353.639 267.042 353.639H236.082C232.588 353.639 230.131 350.963 228.711 345.611L224.616 329.083H184.648L180.552 345.611ZM204.632 233.931L193.002 283.042H216.262L204.632 233.931Z" fill="#D7D7D"/>
<path d="M396.711 305.236C397.913 305.236 398.95 305.866 399.824 307.125C400.697 308.384 401.134 309.88 401.134 311.611V347.264C401.134 348.995 400.697 350.491 399.824 351.75C398.95 353.009 397.913 353.639 396.711 353.639H301.049C299.848 353.639 298.81 353.009 297.937 351.75C297.063 350.491 296.626 348.995 296.626 347.264V194.736C296.626 193.005 297.063 191.509 297.937 190.25C298.81 188.991 299.848 188.361 301.049 188.361H336.431C337.632 188.361 338.67 188.991 339.543 190.25C340.417 191.509 340.854 193.005 340.854 194.736V305.236H396.711Z" fill="#D7D7D"/>
<path d="M491.491 248.333C503.503 250.222 513.113 253.292 520.32 257.542C527.637 261.792 532.933 267.38 536.209 274.306C539.486 281.231 541.124 289.889 541.124 300.278C541.124 311.611 538.557 321.528 533.425 330.028C528.401 338.37 521.412 344.824 512.458 349.389C503.503 353.796 493.293 356 481.826 356C469.049 356 458.238 353.718 449.393 349.153C440.547 344.588 433.94 338.528 429.572 330.972C425.204 323.259 423.02 314.838 423.02 305.708C423.02 304.134 423.348 302.875 424.003 301.931C424.767 300.986 425.696 300.514 426.788 300.514H460.368C462.661 300.514 464.517 301.537 465.937 303.583C467.794 306.102 469.868 307.833 472.162 308.778C474.455 309.565 477.676 309.958 481.826 309.958C492.2 309.958 497.388 307.676 497.388 303.111C497.388 301.222 496.678 299.648 495.258 298.389C493.948 296.972 491.545 295.792 488.051 294.847C484.665 293.745 479.642 292.644 472.981 291.542C458.02 289.023 446.553 283.671 438.582 275.486C430.61 267.144 426.624 255.417 426.624 240.306C426.624 229.602 428.862 220.157 433.34 211.972C437.817 203.787 444.151 197.412 452.341 192.847C460.641 188.282 470.251 186 481.171 186C492.528 186 502.466 188.597 510.983 193.792C519.501 198.829 525.999 205.125 530.476 212.681C534.954 220.236 537.192 227.634 537.192 234.875C537.192 236.449 536.81 237.708 536.046 238.653C535.39 239.597 534.462 240.069 533.261 240.069H498.043C496.186 240.069 494.494 239.125 492.965 237.236C491.764 235.662 490.344 234.403 488.706 233.458C487.068 232.514 484.556 232.042 481.171 232.042C473.854 232.042 470.196 234.245 470.196 238.653C470.196 241.014 471.616 242.903 474.455 244.319C477.294 245.579 482.973 246.917 491.491 248.333Z" fill="#D7D7D"/>
<path d="M668.5 267.458C672.759 269.347 676.417 273.519 679.475 279.972C682.533 286.269 684.062 293.509 684.062 301.694C684.062 319.167 680.13 332.231 672.268 340.889C664.405 349.389 652.939 353.639 637.869 353.639H570.381C569.18 353.639 568.142 353.009 567.268 351.75C566.395 350.491 565.958 348.995 565.958 347.264V194.736C565.958 193.005 566.395 191.509 567.268 190.25C568.142 188.991 569.18 188.361 570.381 188.361H636.23C651.737 188.361 663.149 192.454 670.466 200.639C677.892 208.667 681.605 220.866 681.605 237.236V237.944C681.605 245.5 680.185 251.954 677.346 257.306C674.506 262.657 671.558 266.042 668.5 267.458ZM637.213 239.361C637.213 236.528 636.613 234.088 635.411 232.042C634.319 229.995 632.681 228.972 630.497 228.972H608.547V250.458H630.497C632.681 250.458 634.319 249.356 635.411 247.153C636.613 244.792 637.213 242.194 637.213 239.361ZM632.299 313.028C634.811 313.028 636.667 311.847 637.869 309.486C639.179 306.968 639.834 304.213 639.834 301.222V300.986C639.834 297.995 639.124 295.398 637.705 293.194C636.394 290.991 634.592 289.889 632.299 289.889H608.547V313.028H632.299Z" fill="#D7D7D"/>
<path d="M813.895 307.597C815.096 307.597 816.134 308.227 817.008 309.486C817.881 310.745 818.318 312.241 818.318 313.972V347.264C818.318 348.995 817.881 350.491 817.008 351.75C816.134 353.009 815.096 353.639 813.895 353.639H710.37C709.169 353.639 708.132 353.009 707.258 351.75C706.384 350.491 705.948 348.995 705.948 347.264V194.736C705.948 193.005 706.384 191.509 707.258 190.25C708.132 188.991 709.169 188.361 710.37 188.361H812.257C813.458 188.361 814.496 188.991 815.369 190.25C816.243 191.509 816.68 193.005 816.68 194.736V228.028C816.68 229.759 816.243 231.255 815.369 232.514C814.496 233.773 813.458 234.403 812.257 234.403H748.537V249.278H803.248C804.449 249.278 805.487 249.907 806.36 251.167C807.234 252.426 807.671 253.921 807.671 255.653V286.347C807.671 288.079 807.234 289.574 806.36 290.833C805.487 292.093 804.449 292.722 803.248 292.722H748.537V307.597H813.895Z" fill="#D7D7D"/>
<path d="M965.023 346.319C965.242 346.949 965.351 347.657 965.351 348.444C965.351 349.861 964.969 351.12 964.204 352.222C963.549 353.167 962.73 353.639 961.747 353.639H924.564C923.035 353.639 921.615 353.088 920.305 351.986C919.103 350.884 918.23 349.468 917.684 347.736L903.269 300.986H889.509V347.264C889.509 348.995 889.072 350.491 888.199 351.75C887.325 353.009 886.288 353.639 885.087 353.639H849.705C848.503 353.639 847.466 353.009 846.592 351.75C845.719 350.491 845.282 348.995 845.282 347.264V194.736C845.282 193.005 845.719 191.509 846.592 190.25C847.466 188.991 848.503 188.361 849.705 188.361H913.425C923.253 188.361 931.826 190.644 939.142 195.208C946.568 199.773 952.247 206.384 956.178 215.042C960.109 223.699 962.075 233.852 962.075 245.5C962.075 266.907 956.342 282.412 944.875 292.014L965.023 346.319ZM909.985 257.306C912.387 257.306 914.244 256.204 915.554 254C916.865 251.639 917.52 248.727 917.52 245.264C917.52 241.801 916.865 238.81 915.554 236.292C914.353 233.616 912.497 232.278 909.985 232.278H889.509V257.306H909.985Z" fill="#D7D7D"/>
<path d="M1098.13 254C1099.33 254 1100.37 254.63 1101.25 255.889C1102.12 257.148 1102.56 258.644 1102.56 260.375V285.403C1102.56 309.329 1096.88 327.116 1085.52 338.764C1074.27 350.255 1059.37 356 1040.8 356C1022.24 356 1007.28 350.255 995.919 338.764C984.671 327.116 979.047 309.171 979.047 284.931V257.069C979.047 241.014 981.777 227.713 987.237 217.167C992.697 206.463 1000.07 198.593 1009.35 193.556C1018.63 188.519 1029.12 186 1040.8 186C1054.78 186 1066.3 189.306 1075.36 195.917C1084.43 202.528 1090.98 210.005 1095.02 218.347C1099.17 226.69 1101.25 233.458 1101.25 238.653C1101.25 240.069 1100.86 241.329 1100.1 242.431C1099.44 243.375 1098.62 243.847 1097.64 243.847H1060.62C1058.44 243.847 1056.85 242.981 1055.87 241.25C1052.49 235.111 1047.46 232.042 1040.8 232.042C1035.78 232.042 1031.57 233.694 1028.19 237C1024.91 240.306 1023.27 244.556 1023.27 249.75V289.889C1023.27 296.185 1024.91 301.144 1028.19 304.764C1031.46 308.227 1035.67 309.958 1040.8 309.958C1047.57 309.958 1052.54 308.306 1055.71 305C1058.98 301.537 1060.68 297.523 1060.79 292.958H1050.63C1049.43 292.958 1048.39 292.329 1047.52 291.069C1046.64 289.81 1046.21 288.315 1046.21 286.583V260.375C1046.21 258.644 1046.64 257.148 1047.52 255.889C1048.39 254.63 1049.43 254 1050.63 254H1098.13Z" fill="#D7D7D"/>
<path d="M1232.88 188.361C1234.08 188.361 1235.12 188.991 1235.99 190.25C1236.87 191.509 1237.3 193.005 1237.3 194.736V347.264C1237.3 348.995 1236.87 350.491 1235.99 351.75C1235.12 353.009 1234.08 353.639 1232.88 353.639H1199.14C1197.94 353.639 1196.9 353.009 1196.02 351.75C1195.15 350.491 1194.71 348.995 1194.71 347.264V296.972H1161.95V347.264C1161.95 348.995 1161.52 350.491 1160.64 351.75C1159.77 353.009 1158.73 353.639 1157.53 353.639H1123.79C1122.59 353.639 1121.55 353.088 1120.67 351.986C1119.8 350.727 1119.36 349.153 1119.36 347.264V194.736C1119.36 193.005 1119.8 191.509 1120.67 190.25C1121.55 188.991 1122.59 188.361 1123.79 188.361H1157.53C1158.73 188.361 1159.77 188.991 1160.64 190.25C1161.52 191.509 1161.95 193.005 1161.95 194.736V243.139H1194.71V194.736C1194.71 193.005 1195.15 191.509 1196.02 190.25C1196.9 188.991 1197.94 188.361 1199.14 188.361H1232.88Z" fill="#D7D7D"/>
<path d="M1370.58 307.597C1371.78 307.597 1372.82 308.227 1373.69 309.486C1374.56 310.745 1375 312.241 1375 313.972V347.264C1375 348.995 1374.56 350.491 1373.69 351.75C1372.82 353.009 1371.78 353.639 1370.58 353.639H1267.05C1265.85 353.639 1264.81 353.009 1263.94 351.75C1263.07 350.491 1262.63 348.995 1262.63 347.264V194.736C1262.63 193.005 1263.07 191.509 1263.94 190.25C1264.81 188.991 1265.85 188.361 1267.05 188.361H1368.94C1370.14 188.361 1371.18 188.991 1372.05 190.25C1372.93 191.509 1373.36 193.005 1373.36 194.736V228.028C1373.36 229.759 1372.93 231.255 1372.05 232.514C1371.18 233.773 1370.14 234.403 1368.94 234.403H1305.22V249.278H1359.93C1361.13 249.278 1362.17 249.907 1363.04 251.167C1363.92 252.426 1364.35 253.921 1364.35 255.653V286.347C1364.35 288.079 1363.92 289.574 1363.04 290.833C1362.17 292.093 1361.13 292.722 1359.93 292.722H1305.22V307.597H1370.58Z" fill="#D7D7D"/>
</svg>
