<svg width="50" height="50" viewBox="0 0 50 50" fill="none" xmlns="http://www.w3.org/2000/svg">
<path d="M17.7594 6C16.6647 6 15.6494 6.24655 14.75 6.76747C11.9391 8.40015 10.8692 12.3788 11.4361 17.3325C6.88942 19.3154 4 22.2351 4 25.5C4 28.7649 6.88942 31.6846 11.4361 33.6675C10.8695 38.621 11.9391 42.5999 14.75 44.2325C15.6476 44.7535 16.6629 45 17.7594 45C20.0933 45 22.7907 43.8216 25.5 41.7999C28.2095 43.8216 30.9102 45 33.2441 45C34.3388 45 35.3541 44.7535 36.2535 44.2325C39.0644 42.5999 40.1343 38.6211 39.5674 33.6675C44.1124 31.6847 47 28.7642 47 25.5C47 22.2351 44.1106 19.3154 39.5639 17.3325C40.1305 12.379 39.0609 8.40015 36.25 6.76747C35.3524 6.24474 34.3371 6 33.2406 6C30.9067 6 28.2093 7.17842 25.5 9.20013C22.7906 7.17842 20.0925 6 17.7594 6ZM17.7594 9.15436C19.1599 9.15436 21.0118 9.90349 23.0225 11.2913C21.8403 12.4137 20.6825 13.69 19.5686 15.111C17.7619 15.3717 16.0585 15.7516 14.4805 16.227C14.4721 16.1169 14.452 16.0014 14.4456 15.8926C14.2538 12.6841 14.9542 10.2925 16.3177 9.49937C16.7208 9.26504 17.1915 9.15436 17.7594 9.15436ZM33.2406 9.15436C33.8067 9.15436 34.2792 9.26504 34.6823 9.49937C36.0457 10.2907 36.7462 12.6841 36.5544 15.8926C36.5479 16.0014 36.528 16.1169 36.5194 16.227C34.9405 15.7513 33.2358 15.3717 31.4279 15.111C30.314 13.6902 29.1597 12.4136 27.9775 11.2913C29.9881 9.90372 31.8409 9.15436 33.2406 9.15436ZM25.5 13.2945C25.9857 13.7392 26.468 14.2093 26.9557 14.7238C26.4724 14.7074 25.9916 14.6851 25.5 14.6851C25.0096 14.6851 24.53 14.7075 24.0478 14.7238C24.5351 14.2098 25.0148 13.7388 25.5 13.2945ZM25.5 17.8394C26.9847 17.8394 28.392 17.9229 29.7272 18.0682C30.5415 19.1817 31.344 20.359 32.0963 21.6697C32.8173 22.9261 33.4549 24.2121 34.0174 25.5C33.4548 26.7887 32.8177 28.0767 32.0963 29.3338C31.3463 30.6408 30.5458 31.8104 29.7342 32.9212C28.3518 33.0734 26.9337 33.1606 25.5 33.1606C24.0153 33.1606 22.608 33.0771 21.2728 32.9318C20.4585 31.8183 19.656 30.6446 18.9037 29.3338C18.1823 28.0767 17.5453 26.7887 16.9826 25.5C17.5449 24.2121 18.1827 22.9261 18.9037 21.6697C19.6539 20.3627 20.454 19.1896 21.2658 18.0788C22.6482 17.9266 24.0663 17.8394 25.5 17.8394ZM34.0034 18.8146C34.7143 18.9872 35.3976 19.1736 36.04 19.3814C35.8945 20.043 35.7165 20.7173 35.5151 21.3986C35.2846 20.9634 35.061 20.5268 34.8118 20.0925C34.5553 19.6459 34.2706 19.2446 34.0034 18.8146ZM16.9931 18.8181C16.7268 19.2468 16.4438 19.6473 16.1882 20.0925C15.9391 20.5268 15.7153 20.9633 15.4849 21.3986C15.283 20.7159 15.1022 20.0408 14.9565 19.3779C15.6107 19.1699 16.2923 18.9858 16.9931 18.8181ZM12.0065 20.5361C12.384 22.1396 12.9077 23.8019 13.5812 25.4965C12.9091 27.187 12.3876 28.8462 12.01 30.4463C8.88988 28.9305 7.13542 27.0436 7.13542 25.5C7.13542 23.9156 8.84086 22.11 11.6986 20.6734C11.7961 20.6243 11.9068 20.5841 12.0065 20.5361ZM38.99 20.5537C42.1101 22.0695 43.8646 23.9564 43.8646 25.5C43.8646 27.0844 42.1591 28.89 39.3014 30.3266C39.2039 30.3757 39.0932 30.4159 38.9935 30.4639C38.6158 28.8594 38.0964 27.1956 37.4223 25.5C38.0936 23.8109 38.6127 22.1524 38.99 20.5537ZM25.5 21.895C23.5202 21.895 21.9167 23.5082 21.9167 25.5C21.9167 27.4918 23.5202 29.105 25.5 29.105C27.4798 29.105 29.0833 27.4918 29.0833 25.5C29.0833 23.5082 27.4798 21.895 25.5 21.895ZM15.4849 29.6014C15.7155 30.0368 15.9424 30.4731 16.1917 30.9075C16.4479 31.3538 16.7296 31.7557 16.9966 32.1854C16.2857 32.0128 15.6024 31.8264 14.96 31.6186C15.1056 30.9566 15.2833 30.2832 15.4849 29.6014ZM35.5151 29.6049C35.7167 30.287 35.898 30.9598 36.0435 31.6221C35.3893 31.8301 34.7077 32.0142 34.0069 32.1819C34.2732 31.7532 34.5562 31.3527 34.8118 30.9075C35.0604 30.4741 35.2851 30.0393 35.5151 29.6049ZM14.4805 34.773C16.0595 35.2487 17.7642 35.6283 19.5721 35.889C20.6863 37.3105 21.8398 38.5896 23.0225 39.7122C21.012 41.0996 19.1598 41.8492 17.7594 41.8492C17.1933 41.8492 16.7208 41.735 16.3177 41.5006C14.9542 40.7093 14.2538 38.3194 14.4456 35.1109C14.4521 35.001 14.4719 34.8842 14.4805 34.773ZM36.5194 34.773C36.528 34.8842 36.5479 35.001 36.5544 35.1109C36.7462 38.3194 36.0457 40.7075 34.6823 41.5006C34.2792 41.735 33.8085 41.8492 33.2406 41.8492C31.8402 41.8492 29.9881 41.0999 27.9775 39.7122C29.1603 38.5894 30.317 37.3107 31.4314 35.889C33.2381 35.6283 34.9415 35.2484 36.5194 34.773ZM24.0443 36.2762C24.5276 36.2926 25.0084 36.3149 25.5 36.3149C25.9916 36.3149 26.4724 36.2926 26.9557 36.2762C26.468 36.7907 25.9857 37.2608 25.5 37.7055C25.0143 37.2608 24.532 36.7907 24.0443 36.2762Z" fill="black"/>
</svg>
